<?xml version="1.0" encoding="UTF-8" standalone="no"?>
<svg
   xmlns:dc="http://purl.org/dc/elements/1.1/"
   xmlns:cc="http://creativecommons.org/ns#"
   xmlns:rdf="http://www.w3.org/1999/02/22-rdf-syntax-ns#"
   xmlns:svg="http://www.w3.org/2000/svg"
   xmlns="http://www.w3.org/2000/svg"
   xmlns:sodipodi="http://sodipodi.sourceforge.net/DTD/sodipodi-0.dtd"
   xmlns:inkscape="http://www.inkscape.org/namespaces/inkscape"
   width="32"
   height="32"
   viewBox="0 0 32 32"
   version="1.1"
   id="svg4"
   sodipodi:docname="dgx-white.svg"
   inkscape:version="1.0.1 (3bc2e813f5, 2020-09-07)">
  <metadata
     id="metadata10">
    <rdf:RDF>
      <cc:Work
         rdf:about="">
        <dc:format>image/svg+xml</dc:format>
        <dc:type
           rdf:resource="http://purl.org/dc/dcmitype/StillImage" />
      </cc:Work>
    </rdf:RDF>
  </metadata>
  <defs
     id="defs8" />
  <sodipodi:namedview
     pagecolor="#ffffff"
     bordercolor="#666666"
     borderopacity="1"
     objecttolerance="10"
     gridtolerance="10"
     guidetolerance="10"
     inkscape:pageopacity="0"
     inkscape:pageshadow="2"
     inkscape:window-width="1916"
     inkscape:window-height="1017"
     id="namedview6"
     showgrid="false"
     inkscape:zoom="20.48"
     inkscape:cx="16.514063"
     inkscape:cy="16.765595"
     inkscape:window-x="0"
     inkscape:window-y="0"
     inkscape:window-maximized="1"
     inkscape:current-layer="svg4"
     inkscape:document-rotation="0" />
  <g
     id="g852"
     transform="translate(-0.17227717,-0.06122141)"
     style="fill:#666666">
    <path
       style="fill:#666666;stroke-width:0.0970117"
       d="M 11.915536,27.218142 C 9.6007518,24.91746 7.7068366,22.991565 7.7068366,22.938374 c 0,-0.05319 1.9050679,-1.989421 4.2334844,-4.302734 l 4.233485,-4.206023 4.284134,4.257187 4.284134,4.257188 -4.237655,4.204322 c -2.33071,2.312377 -4.269723,4.215248 -4.308919,4.228603 -0.0392,0.01335 -1.965179,-1.858095 -4.279964,-4.158775 z M 3.3758985,18.732212 0.55465138,15.927458 8.364087,8.1671415 l 7.809437,-7.76031599 7.809647,7.76052589 7.809646,7.7605256 -2.846341,2.828439 -2.846342,2.828439 -4.939334,-4.907558 -4.939332,-4.907559 -4.913853,4.883663 c -2.7026186,2.686014 -4.9580905,4.883663 -5.0121605,4.883663 -0.05407,0 -1.3678702,-1.262139 -2.919556,-2.804752 z"
       id="path23"
       sodipodi:nodetypes="ssscccsssscccccccccsss" />
    <path
       style="fill:#666666;stroke-width:0.0970117"
       d="M 3.4245517,18.683853 0.65198032,15.927448 C 5.8258284,10.786143 10.999676,5.6448378 16.173524,0.50353251 l 0.04794,11.26610549 -4.913853,4.786957 c -2.72934,2.658857 -4.9580963,4.883663 -5.0121722,4.883663 -0.054076,0 -1.3459765,-1.240382 -2.8708911,-2.756405 z"
       id="path21"
       sodipodi:nodetypes="scccsss" />
    <path
       style="opacity:0.875194;fill:#666666;stroke-width:0.199723"
       d="m 7.8455968,23.067695 -0.1075889,-0.143347 0.7267799,-0.7551 c 0.399729,-0.415304 2.2957232,-2.31868 4.2133212,-4.229724 l 3.486542,-3.474627 c 0.01028,9.142829 0.04798,9.510894 0.02594,16.91311 -2.759688,-2.606761 -5.883436,-5.768571 -8.3449952,-8.310312 z"
       id="path27"
       sodipodi:nodetypes="ccssccc" />
    <path
       style="opacity:0.875194;fill:#666666;stroke-width:0.16325"
       d="m 21.163864,16.657343 -4.90625,-4.881345 -0.01663,-0.8125 c -0.0091,-0.446875 -0.0196,-2.1695314 -0.02324,-3.8281252 -0.0036,-1.6585937 -0.01603,-3.8286387 -0.02754,-4.8223223 L 16.16929,0.50635324 15.925328,0.74888465 C 15.791149,0.8822769 15.674344,0.9843944 15.665762,0.97581237 15.65718,0.96723037 15.768529,0.84245309 15.913204,0.69852951 L 16.17625,0.43685029 19.821566,4.0595491 c 2.004923,1.9924844 5.507424,5.4719175 7.783335,7.7320739 2.27591,2.260156 4.137504,4.119615 4.136875,4.132131 -0.0018,0.0349 -5.612273,5.618074 -5.643905,5.616401 -0.01527,-8.07e-4 -2.235569,-2.198072 -4.934007,-4.882812 z"
       id="path29" />
    <path
       style="opacity:0.875194;fill:#666666;fill-opacity:0;stroke-width:0.16325"
       d="m 16.210739,27.785717 c 0,-1.950422 -0.0087,-5.745821 -0.01929,-8.434221 l -0.01929,-4.887998 1.136478,1.126801 c 0.625063,0.619741 2.5455,2.526427 4.267638,4.23708 l 3.131159,3.110278 -1.990534,1.984274 c -2.062464,2.055976 -6.011658,5.953845 -6.326472,6.244252 l -0.179688,0.165756 z"
       id="path31" />
    <path
       style="opacity:0.875194;fill:#666666;fill-opacity:1;stroke-width:0.923481"
       d="m 16.201775,22.852693 v -8.283755 l 4.196831,4.196831 4.196831,4.19683 -2.119705,2.134885 c -1.165837,1.174187 -3.054411,3.013303 -4.19683,4.086924 l -2.077127,1.95204 z"
       id="path870" />
    <path
       style="opacity:0.875194;fill:#666666;fill-opacity:1;stroke-width:0.923481"
       d="m 11.870746,26.988416 -4.0658636,-4.019824 4.0658636,-4.069336 4.065864,-4.069336 0.04748,4.079612 c 0.02612,2.243788 0.02612,5.88391 0,8.089161 l -0.04748,4.009547 z"
       id="path872" />
    <path
       style="opacity:0.875194;fill:#666666;fill-opacity:1;stroke-width:0.923481"
       d="m 21.103532,16.464579 -4.906983,-4.909331 0.04681,-5.4181192 0.04681,-5.41811956 7.689786,7.57412546 7.689786,7.5741253 -2.7379,2.753325 c -1.505844,1.514329 -2.779169,2.753325 -2.829611,2.753325 -0.05044,0 -2.299853,-2.209199 -4.998693,-4.909331 z"
       id="path874" />
    <path
       style="opacity:0.875194;fill:#666666;fill-opacity:1;stroke-width:0.923481"
       d="M 3.4602967,18.612107 0.73381462,15.873174 8.3352125,8.3919665 15.93661,0.91075894 16.033902,1.9057523 c 0.05351,0.5472464 0.115523,2.9653229 0.137804,5.3735034 l 0.04051,4.3785103 -4.711666,4.635771 c -2.591416,2.549673 -4.8471397,4.730659 -5.0127188,4.846637 -0.26056,0.182503 -0.66778,-0.157536 -3.0275345,-2.528067 z"
       id="path876" />
  </g>
</svg>
